# xmcd
#
# Track frame offsets: 
#        150
#        15620
#        26880
#        37550
#        47785
#        58765
#        78500
#        95542
#        109465
#        127410
#        137790
#        154322
#        164670
#        174850
#        189905
#        201882
#        218405
#        229550
#        247582
#        257825
#        268700
#        285360
#        295582
#        306455
#        320335
#
# Disc length: 4452 seconds
#
# Revision: 3
# Processed by: cddbd v1.5.2PL0 Copyright (c) Steve Scherf et al.
# Submitted via: ExactAudioCopy v0.99pb5
#
DISCID=61116219
DTITLE=Various Artist - Country Stars [CD 4)
DYEAR=1992
DGENRE=Country
TTITLE0=Tammy Wynette - Cryin' in the Rain
TTITLE1=Don Williams - It Must Be Love
TTITLE2=Patsy Cline - I Can See An Angel
TTITLE3=Ricky Nelson - Never Be Anyone Else But You
TTITLE4=Merle Haggard - Corinna, Corinna
TTITLE5=Tanya Tucker - Delta Dawn
TTITLE6=Carl Perkins - Sweeter than Candy
TTITLE7=Charlie Rich - Since I Fell for You
TTITLE8=Lynn Anderson - Midnight Train to Georgia
TTITLE9=Freddy Quinn - Carry Me Back to Old Virginny
TTITLE10=Mickey Gilley - The Lady in My Life
TTITLE11=Donna Fargo - Hello Little Bluebird
TTITLE12=Freddy Fender - Wasted Days and Wasted Nights
TTITLE13=George Jones - I Always Get Lucky With You
TTITLE14=Barbara Mandrell - Give a Little Take a Little
TTITLE15=Bobby Bare - Marie Laveau
TTITLE16=Loretta Lynn - Hey, Loretta
TTITLE17=Hoyt Axton - Wild Bull Rider
TTITLE18=Nitty Gritty Dirt Band - High Horse
TTITLE19=Faron Young - Hallo Walls
TTITLE20=The Bellamy Brothers - Redneck Girl
TTITLE21=Connie Francis - Who's Sorry Now
TTITLE22=Sandy Posey - Single Girl
TTITLE23=Lobo - Me and You and a Dog Named Boo
TTITLE24=Anne Murray - Another Sleepless Night
EXTD=
EXTT0=
EXTT1=
EXTT2=
EXTT3=
EXTT4=
EXTT5=
EXTT6=
EXTT7=
EXTT8=
EXTT9=
EXTT10=
EXTT11=
EXTT12=
EXTT13=
EXTT14=
EXTT15=
EXTT16=
EXTT17=
EXTT18=
EXTT19=
EXTT20=
EXTT21=
EXTT22=
EXTT23=
EXTT24=
PLAYORDER=
